<svg width="51" height="19" viewBox="0 0 51 19" fill="none" xmlns="http://www.w3.org/2000/svg">
<path fill-rule="evenodd" clip-rule="evenodd" d="M41.3367 18.3813C46.4467 18.3813 50.5892 14.2665 50.5892 9.1906C50.5892 4.1147 46.4467 -0.00012207 41.3367 -0.00012207C36.2267 -0.00012207 32.0842 4.1147 32.0842 9.1906C32.0842 14.2665 36.2267 18.3813 41.3367 18.3813ZM30.6198 0.595226C25.8937 0.595226 22.033 4.4302 22.033 9.19086C22.033 13.8854 25.8937 17.7204 30.6864 17.7204L30.6198 0.595226ZM0 9.19062C0 6.94253 0.865326 4.95893 2.26318 3.37204V14.9431C0.865326 13.4223 0 11.4387 0 9.19062ZM20.0359 1.12394C16.7742 2.3141 14.3779 5.48788 14.3779 9.19061C14.3779 12.8933 16.7076 16.001 20.0359 17.1912V1.12394ZM7.65491 9.12461C7.65491 6.34756 8.98621 3.90111 11.0497 2.31422V15.935C8.98621 14.3481 7.65491 11.9017 7.65491 9.12461Z" fill="white"/>
</svg>
